<mxfile host="65bd71144e">
    <diagram id="KxvpU1TggzoFdNNfrr5i" name="ページ1">
        <mxGraphModel dx="593" dy="1746" grid="1" gridSize="10" guides="1" tooltips="1" connect="1" arrows="1" fold="1" page="1" pageScale="1" pageWidth="827" pageHeight="1169" math="0" shadow="0">
            <root>
                <mxCell id="0"/>
                <mxCell id="1" parent="0"/>
                <mxCell id="6" value="VPC" style="points=[[0,0],[0.25,0],[0.5,0],[0.75,0],[1,0],[1,0.25],[1,0.5],[1,0.75],[1,1],[0.75,1],[0.5,1],[0.25,1],[0,1],[0,0.75],[0,0.5],[0,0.25]];outlineConnect=0;gradientColor=none;html=1;whiteSpace=wrap;fontSize=12;fontStyle=0;container=1;pointerEvents=0;collapsible=0;recursiveResize=0;shape=mxgraph.aws4.group;grIcon=mxgraph.aws4.group_vpc;strokeColor=#248814;fillColor=none;verticalAlign=top;align=left;spacingLeft=30;fontColor=#AAB7B8;dashed=0;" vertex="1" parent="1">
                    <mxGeometry y="40" width="410" height="320" as="geometry"/>
                </mxCell>
                <mxCell id="7" value="Public subnet" style="points=[[0,0],[0.25,0],[0.5,0],[0.75,0],[1,0],[1,0.25],[1,0.5],[1,0.75],[1,1],[0.75,1],[0.5,1],[0.25,1],[0,1],[0,0.75],[0,0.5],[0,0.25]];outlineConnect=0;gradientColor=none;html=1;whiteSpace=wrap;fontSize=12;fontStyle=0;container=1;pointerEvents=0;collapsible=0;recursiveResize=0;shape=mxgraph.aws4.group;grIcon=mxgraph.aws4.group_security_group;grStroke=0;strokeColor=#248814;fillColor=#E9F3E6;verticalAlign=top;align=left;spacingLeft=30;fontColor=#248814;dashed=0;" vertex="1" parent="6">
                    <mxGeometry x="15.62" y="80" width="174.38" height="200" as="geometry"/>
                </mxCell>
                <mxCell id="5" value="" style="rounded=0;whiteSpace=wrap;html=1;" vertex="1" parent="7">
                    <mxGeometry x="32.190000000000005" y="45" width="110" height="120" as="geometry"/>
                </mxCell>
                <mxCell id="2" value="" style="sketch=0;points=[[0,0,0],[0.25,0,0],[0.5,0,0],[0.75,0,0],[1,0,0],[0,1,0],[0.25,1,0],[0.5,1,0],[0.75,1,0],[1,1,0],[0,0.25,0],[0,0.5,0],[0,0.75,0],[1,0.25,0],[1,0.5,0],[1,0.75,0]];outlineConnect=0;fontColor=#232F3E;gradientColor=#F78E04;gradientDirection=north;fillColor=#D05C17;strokeColor=#ffffff;dashed=0;verticalLabelPosition=bottom;verticalAlign=top;align=center;html=1;fontSize=12;fontStyle=0;aspect=fixed;shape=mxgraph.aws4.resourceIcon;resIcon=mxgraph.aws4.ecs;" vertex="1" parent="7">
                    <mxGeometry x="32.190000000000005" y="45" width="30" height="30" as="geometry"/>
                </mxCell>
                <mxCell id="3" value="" style="sketch=0;outlineConnect=0;fontColor=#232F3E;gradientColor=none;fillColor=#D45B07;strokeColor=none;dashed=0;verticalLabelPosition=bottom;verticalAlign=top;align=center;html=1;fontSize=12;fontStyle=0;aspect=fixed;pointerEvents=1;shape=mxgraph.aws4.container_1;" vertex="1" parent="7">
                    <mxGeometry x="75.31" y="105" width="43.77" height="28.27" as="geometry"/>
                </mxCell>
                <mxCell id="4" value="" style="shape=image;verticalLabelPosition=bottom;labelBackgroundColor=default;verticalAlign=top;aspect=fixed;imageAspect=0;image=data:image/png,iVBORw0KGgoAAAANSUhEUgAAAPUAAABoCAYAAAApSbb4AAAAAXNSR0IArs4c6QAAAARnQU1BAACxjwv8YQUAAAAJcEhZcwAADsMAAA7DAcdvqGQAABNSSURBVHhe7Z0NcBRVtscPhEoBytcTWQH5CggUIh+KGImKoJiiQN9KBSUssogKiIRvIwZQFDNCFCIQ3QAuRh4ILjyVBZaF5SFEIAGhEJTvD98iglIIYXkID83z9b/ndpiZ3O5093RPembOr6qL2z1Jd2fof99zzj3n3iq/KRDDMDFDVfEvwzAxAouaYWIMFjXDxBgsaoaJMVjUDBNjRFX0+9yVi/SnPcvovaNrqeTyGap7Q0N6qlkPGnXXH6hprd+Jn2KY+CZqRP3nfZ/SlD2LVDFT1UT/9n/X/JvS9nUeRsPuGkA3VKsufoNh4hPPi7ro9D4audlHh0qOXRezjF//h5Jqt6AZXZ+nR1v3FAcZJv7wrKiPX/yephW+Qyu/XUOUWE9fzIGInrv7LV1o1oOZdPu/JYkPGCZ+8JyoNb/Z99X7yt0lECXUEJ9YAOK+doEyOjxHmfc8Q/Vr1BEfMEzs4ylRrzi8gUYXz/P7zdVuFEfDQDHJcZ685DE0oF1v9reZuMAToobfnLV9LhWf/crYb7aDMMnb1m1FvuRR1DvpPvEBw8QmlSpqmNqZW2bTshNrnRdzKELcqY260aweL1HLOo3FBwwTW1SKqC//epUW7F5OWbvz7PvNdhHizur0LD3fOZ39bSbmiLioVx/ZRMOKcp3zm+2i+NtIXnmj81D2t5mYImKi/vKH/ZRdPJ/Wn97uvqltFtFrJzfoRL5uo+neRh3EBwwTvbguavjN2UX5lH9ohXfEHIoQd1qTHpT94EROOWWiGtdEDb95+YF1NGprduT9ZruUXiH6rVT1t8d3HcImOROVuCLqdSe2UlZxnj+1szL9ZrsIf3tucgb1b/OIOMgw0YGjot5//gRNLnzHW36zXYRJjpTT6d0y6O5bbhcfMIy3cUTUMLVf2/oezTv4sf9ANJjaZhHiTk/qQzndx/MQGON5whY1SiJHbZuh+qJRaWqbRfjbvrtGcYkn42lsi7qsJPLcXqLqcRQt5hJPxuNYFjVKIrOLFkQmtdOrCJMcKaeTk4ezv814CtOiht88e2cB+fYt9pvaseQ320WIO6PdQC7xZDyDKVGjJHLwFl9ZKSMTAvxthbyUSZxyylQ6hqJGamfm1lwqPr0tvvxmuwh/+/2eUznllKk0dEWNwosn/v6C+amEGD8wya9doLwHffRMh8fFQYaJHFJRn7z0I7VZKh5IFrQ9lF67sN+HHERjIo50Mv//PLDO3+OwoO1TJYFWHFovdhgmckhFffLyj+pD6QoItl1Vzo/gEja0cQwvkUiA62jX1+7FjWsr39+Rkv8WOwwTOSK37A6Eo2yogNqU9jEdHvRX+mbgJ2obWVptazf1C8xNlPOnNU6hT/ou9F//D6toceoc/7UhcIaJAaQ+9bhNMyn/8CfOjUUrYoZwVj06R7dWGePgfzteSIP/K8tv9jtt+iuCzuoyhqZ2GyEOXAfXHrFuKq08Vejo35x6Sxf67PdzxQGGiQwR66lX9pllOPkAxnZR5rhrwF+cN4eV8yU3SpEKGuDauQ9P4YQaJiZwX9SKoNKb9zI9eydW1dj0+0XOmuLXLlDmnUPEjhxkg2W1H8BmOBP1uG9+KyKBzzzuHmNRhaJWf21WTHEnkl6UF8Q3f9xY4YtFzZxbP8aZa0bY/P7pp59E6zo33XSTaJnj0qVLdO1asJWUmJhItWrVEnsV8/3339Px48fp66+/Vu/pwoUL6vGaNWuq99OwYUNq3749NW/e3NJ5ZX9fjRo11PNq/Pzzz3Tlij+7LxCr30NF15J9Dqx+Vxp657N63xqRC5RZBIkbWDbHkR672g2iEZscPnyYbr31VrrjjjvKNuyvXbtW/IQ55s2bF3QetGfMmCE+NQbX6t+/P7Vq1YpSU1Np4sSJ9Oabb1J+fr66zZ49myZPnkxDhw6lrl27UpcuXdR93HtF4EUh+/tWrlwpfsLPqlWrpD+H37fCiBEjgs6D9ueffy4+JZo/f36562Dr1auX+mKxAr432T2npaVZPpeGZ0UNch4cT6lNe5XlVtvm18uiEdugV9Q2gAfDDoHnqAj0yB07dlSvtWbNGnG0Yk6ePKkKvVOnTqq4jdCMydC/T4/Qn3vjjTfUf82i/V7gOQIZO3Ys1atXr+xzbdu7d6/6AjMLLCPt/yjwPOD1118PskKs4GlRg6V9cyipVlPng2dxwrvvvitazoNeBr3ukSNHxBF7QNzJycnqQ+4GBQUF9MUXX4i98IHYli9fLvaCMWt9gMzMTNEKBpbC/fffL/as43lRIzK97t/zWNQ2gRls1fw0A0Ri1xKQgV7u8cfdy5V/7bXXRMsZHnjgAd37NXMtfH942chALx0Onhc1wFCY4xHxOOLtt98WLecYNGiQaMlJSUmhl19+Wb02tuzsbLUHatCggfiJ8mzbts01ywLnXrZsmdhzhpycHNEK5tNPPzWMZ8BXfvHFF8VeMIsWLbIVbAskKkQNUMqIyicWtnXg58H3dQo8sGfPnhV7waD3Onr0KG3cuJFeeeUVeuGFF9Rt/PjxlJubSwcPHiwX4Apk7ty5rpnhEyZMcPTcCGjpvTCNAl34/4BlEgpehOnp6WLPPlEjaoCIOLLCWNjWGTdunGiFD8QpAz3zRx99pD7sesAf7dOnD506dUocCQYBtD179og9Z0EQSu/e7YIXVufOncVeMLIAIPxtvcCgU1ZKVIkaICssrUXf8CPicQbMTyOT0Czo6XCuUFq3bq32zGbBGKxej71r1y7Rch4Ms+m9UOwyc+ZM0QpGZiHBBZEB96RNmzZiLzw8I2rkX2MzQ37v6VS3puKbcfDMEkYmoVkuXrwoWsE8+eSTomWeHj16iFYw3333nWi5g17U2S6IVOuJNdBCWrx4MRUXF4u96+CFqPf7dvCMqH+6cpGmFM4Re8YgIr6j3/t+UbOwLWFlHNUKLVq0EC3zwBSXma5Xr5p7udsFgazCwkKx5wxTpkwRrWC0AB0snOHDh4ujwfh8Pttj0jI8I+qailDz9+Wp6aFmQEQcM4sgr5spD6LM6AFCgT/ntPkJateuLVrWuHy5fGKQnjVgByTGyHC6t4Y7gci1jGnTpqmZdDIQWESMwUm85VNXb0KjNo1WF9gzA6YKQj00B87k5OXliVYw8N+8wpIlS2jDhg1B26uvvio+DZ+kpCQ1rTMURJ9hDjsJIteIYIeC4J9eth1Sc53Ge4EyRdj9/j5WXTTADCjX5Ih4eTDkBF9PliDhdIZVOCDXGfcZuDkVMAL4HgYPHkxNmzYVR64zadIk3WIKu1iJrmM4zG7RhhHeE7WYIOG+z0aoC9aboSwizmWTQSAoppcg4XSGlddBKmooGOKSHQ8HvKQwJl8RiCVgOMwNvCdqoIi65Oez9Oz6qeJAxSAijjm3eagrGIwZy8xtNzKs9IBVYHZDAMvJRBkN+K19+yov/hAgarO52maBBSCzDAKRuQRO4U1Rg4QatP7kP9TabjOU5YijBpwj4kE899xz0ocMwRu3src0cP5HHnnE9IayTYwlu4HeOLrTPSbSPI0qz5Ckgx7dLbwralD9d5T/TQHl7pAnvoeiRsQfe5dFHQIeMj0z0+kMKxmyKLwRdeq4syaZnmnsVGKOBtweo6FDrbzSLbwtaqAIO2vHTGsR8Yc4RzwUmJ+yyKwbGVZeRs/fzcrKCjsxR+ODDz4wTHWF4J0eJw/E+6IGirAREd9//oQ4YAxHxOXo9cpOj9mG4nYyiRUQbZb5s6gJhxjDBS9IlLtWREZGhmMvkVCiQ9SgaiJ1WTnUXkQ8xqczMgvMT1k6IjKsEKSqXt351ToTEhKoQ4cO6iQIoRssB8wgEmkwxCVLSoEYMcQVzj2ZfUHiJeJWdl9UiRqR7UHrXrKUI57coBPRNe6xNfTSGVHy6EaPivTHFStWqHN8hW4oz2zXrp34ycjy1ltviVYw4USlYVLjBWkWt7L7okfUIKEGbflhF2VsNBcdRUT8w9RsokRehldDz/xExpObwyx6lJaWilZkQZLLkCHlZ7idPn26tArNDBhlkIEkEzMFH04RXaIG1W6kZUf+YikijllTrpb+rzjCoFpLZn7qTXxgBruZWefPnxetyIMJBGXYiU6jFhrpoKHge8aQmZ6fjZepk5F3EH2iBiIijjW0zYBZU7BIAOMHJrFepllFVKlSRbSCKSoqEi3z4EUgm7TQDd9eBtJRnciDNwqOLVy4UP23cePGupbQyJEjHc0XiE5RA0XYT2zMNB0RZ4IxmjjPCDycsnnGkE9uNTNL7yHXm0nEDWAWhxus03sx4NyBSSYI0MnG7GEhOZkvEL2iBlUT6eHVY0xHxJlg7FZD9evXT7SCefrpp00HfpCiCv9VRiRFDatF603tgOCYlVlBUZUmA/kCZtNj8R3jZ7HJ3J6oFzVyxPuvnSAOMFaA+Wmm+CAUvdpgJFzcdtttuvnUMDEhAqzkoXcODHO5mUIpA4k5enXXFaE3hIWpmmSzguoNK4LRo0eLlj4YekQNOqyLRo0a0YEDB8pNAR3dogYJNaj47Ff01Gr5lKuMMUY5ynrgwZRFjjVwTqy8gfWn8OA1a9ZMbcNsR2630UoekUhblWGnt0ZwTDYraEUTH2BYUWbyY6ojoxpv9Mp169ZV2wjm7d+/Xx0SxNplgUS/qEG1G2nlt2sod4d85glGH5ifejN2GIFAmxkzGQ+f2ag6hn4i3UtrGPWgMiAwveBYRW4NhhVnzZol9oLBlEd6IwlY/A8vSYDvFZYPXpahL4jYEDVQI+JvmY6IM9fRm7HDCJiWq1evlpYz2gGC1quW0ou4O42Z9E4NvSQes7OCGn3nemt/QcDnzp1T2y1btlQr7yD00CG42BE14Ii4bewEzdDjIFssnKQVPNg7d+40LH+UrLYs5ZdffhGt61jJr0ZkX29y/kD0gmMQmZXeXs/V0Cv4wPetWT24VwgbPjWmbArEM+tTI4Ld5MPeavArLETZ5Xd/XKcuJG+FaF2fGoESvN1Dx3fRa1iZpRI+4rFjx8SevxADQ19mVo2AeJD6uXTpUtq9e7c0EUMDQamHHnqIBgwYYMrchjka2nvh3nBfuD8NCAFR9cDv4eabb1YrsMyCvwPfW+DLANcaOHCgmoUGENUO7R3xMxhvtuo+hH7nGjCp9eq/EYTUxA2fGmIPxH1Rl16hrI5PqwUWRpy89CO1WfKYY9dsW6cFbX2iQE0VNYujC91HUNReA4LAQ49ssZKSEnHUP8Np/fr1yz2EjLO4b35XSaBNpytecWHvmf2K/fQvsRcmyovhUMkx0zniGpv/uZ0oMfJVQ7EGrAOYh+i1QicUZEG7j/uiVsxpDDkZBbBQdTVp55+cFRRyxE+sNT0dUtHpfWoEPWzzn2EqmcgEyhSBIYAlEzZ86b6fjaITlxQfzGlBKdfNP7SCbl/S33DmFPjSPT8b6ozZzTCVjPs+dSBXf6TkRin0WJNuyk5V+vrCt2pvChPd8WsFguAZVvJQRJvetDvdUa+ZcrAqnblynv7jn59TycVjzgs6jn1qpnKRijpz82yad/Bjd4QGgWEDbos5FFz3t1L/pgHrwA2Tm0XNVBJS8/vuhu2DH3wngYAUs1jdIilogGvjmtr1sbkhaKCIunvDO8UOw0QOqagxcV/buq14Yny7KIKue0NDeqqD9dJGhgkX3UDZPx6fr471qhP3aeYyUzHK95V0Y2Pa+Ogcy8kvDOMEUp9aA0NNyw+soyl7FlHJ5TN+c5WRA6tGMe19HQfTsLsGWkp6YRgnMRS1Boadcnb8mebtW+gfS3bLD41GYMVcu0Aj2g+hcXcPUedEY5jKxJSoNVAoMWFzDm05tYXFLcTctn5HWtBzqroyCMN4AUui1kAix8Ttc+jEv76NT5Nc8ZsRCJubnKEGFRnGS9gSNYC/vWD3csraW1DmT8Y8+DurJFBWh8H0fOd0DoQxnsS2qDVQXZX7ZYGajqma47FokgtTO731EzT53mHUsk5j8QHDeI+wRa3x5Q/7KXNrLhWf3hZb/jaGqGq3oPcVvxnzhzOM13FM1BoojhhdPC/6h8AwPq/cf17yGHqGk0iYKMJxUQO/v/2R4m8vjj5/W/jNGW3TKPOeZ9hvZqIOV0StAX972rb3/JVYXve3hd+M5W8npTzPy/QwUYurotbABAQjN/vU2Ug8KW4xRLXo/peod9J94iDDRCcREbWGOrHfFl+Zv1rpCNeA/WYmloioqAH87dk7C8i3T/G3Ud5ZGf42TG1ly2g3kP1mJuaIuKg1kHI6a+eHkfW3hZhTG3WjycnDObWTiUkqTdQa8Lef3TTd/ZRT4TcvuHccPdq6pzjIMLFHpYtaQ51zu3iO80NgOJ+C787hXBLJxAWeETUoK/HE/GggHHELUzs9qQ9NSxnJJZFM3OApUWvA355c+A6tP73dur8txJzcoBPl3DeO/WYm7vCkqDUsl3iKobLF3bO4JJKJWzwtalBW4rk7T7lbnSmF4Tf/VkpZnZ6l8V2HsN/MxDWeF7UG/O3sonz/IgMY34bAxTTGaU160LQHxnJJJMMoRI2oNeBvbzi6mc5cKaFaiTXp4ebduCSSYQKIOlEzDGNMZBbIYxgmYrCoGSbGYFEzTExB9P/LCzytdOpv5AAAAABJRU5ErkJggg==;" vertex="1" parent="7">
                    <mxGeometry x="55.309999999999995" y="93.33000000000001" width="55" height="23.35" as="geometry"/>
                </mxCell>
                <mxCell id="28" value="ECS on Fargate" style="text;html=1;strokeColor=none;fillColor=none;align=center;verticalAlign=middle;whiteSpace=wrap;rounded=0;" vertex="1" parent="7">
                    <mxGeometry x="62.190000000000005" y="45" width="60" height="30" as="geometry"/>
                </mxCell>
                <mxCell id="19" value="Public subnet" style="points=[[0,0],[0.25,0],[0.5,0],[0.75,0],[1,0],[1,0.25],[1,0.5],[1,0.75],[1,1],[0.75,1],[0.5,1],[0.25,1],[0,1],[0,0.75],[0,0.5],[0,0.25]];outlineConnect=0;gradientColor=none;html=1;whiteSpace=wrap;fontSize=12;fontStyle=0;container=1;pointerEvents=0;collapsible=0;recursiveResize=0;shape=mxgraph.aws4.group;grIcon=mxgraph.aws4.group_security_group;grStroke=0;strokeColor=#248814;fillColor=#E9F3E6;verticalAlign=top;align=left;spacingLeft=30;fontColor=#248814;dashed=0;" vertex="1" parent="6">
                    <mxGeometry x="220" y="80" width="174.38" height="200" as="geometry"/>
                </mxCell>
                <mxCell id="20" value="" style="rounded=0;whiteSpace=wrap;html=1;" vertex="1" parent="19">
                    <mxGeometry x="32.190000000000005" y="45" width="110" height="120" as="geometry"/>
                </mxCell>
                <mxCell id="21" value="" style="sketch=0;points=[[0,0,0],[0.25,0,0],[0.5,0,0],[0.75,0,0],[1,0,0],[0,1,0],[0.25,1,0],[0.5,1,0],[0.75,1,0],[1,1,0],[0,0.25,0],[0,0.5,0],[0,0.75,0],[1,0.25,0],[1,0.5,0],[1,0.75,0]];outlineConnect=0;fontColor=#232F3E;gradientColor=#F78E04;gradientDirection=north;fillColor=#D05C17;strokeColor=#ffffff;dashed=0;verticalLabelPosition=bottom;verticalAlign=top;align=center;html=1;fontSize=12;fontStyle=0;aspect=fixed;shape=mxgraph.aws4.resourceIcon;resIcon=mxgraph.aws4.ecs;" vertex="1" parent="19">
                    <mxGeometry x="32.190000000000005" y="45" width="30" height="30" as="geometry"/>
                </mxCell>
                <mxCell id="22" value="" style="sketch=0;outlineConnect=0;fontColor=#232F3E;gradientColor=none;fillColor=#D45B07;strokeColor=none;dashed=0;verticalLabelPosition=bottom;verticalAlign=top;align=center;html=1;fontSize=12;fontStyle=0;aspect=fixed;pointerEvents=1;shape=mxgraph.aws4.container_1;" vertex="1" parent="19">
                    <mxGeometry x="75.31" y="105" width="43.77" height="28.27" as="geometry"/>
                </mxCell>
                <mxCell id="23" value="" style="shape=image;verticalLabelPosition=bottom;labelBackgroundColor=default;verticalAlign=top;aspect=fixed;imageAspect=0;image=data:image/png,iVBORw0KGgoAAAANSUhEUgAAAPUAAABoCAYAAAApSbb4AAAAAXNSR0IArs4c6QAAAARnQU1BAACxjwv8YQUAAAAJcEhZcwAADsMAAA7DAcdvqGQAABNSSURBVHhe7Z0NcBRVtscPhEoBytcTWQH5CggUIh+KGImKoJiiQN9KBSUssogKiIRvIwZQFDNCFCIQ3QAuRh4ILjyVBZaF5SFEIAGhEJTvD98iglIIYXkID83z9b/ndpiZ3O5093RPembOr6qL2z1Jd2fof99zzj3n3iq/KRDDMDFDVfEvwzAxAouaYWIMFjXDxBgsaoaJMVjUDBNjRFX0+9yVi/SnPcvovaNrqeTyGap7Q0N6qlkPGnXXH6hprd+Jn2KY+CZqRP3nfZ/SlD2LVDFT1UT/9n/X/JvS9nUeRsPuGkA3VKsufoNh4hPPi7ro9D4audlHh0qOXRezjF//h5Jqt6AZXZ+nR1v3FAcZJv7wrKiPX/yephW+Qyu/XUOUWE9fzIGInrv7LV1o1oOZdPu/JYkPGCZ+8JyoNb/Z99X7yt0lECXUEJ9YAOK+doEyOjxHmfc8Q/Vr1BEfMEzs4ylRrzi8gUYXz/P7zdVuFEfDQDHJcZ685DE0oF1v9reZuMAToobfnLV9LhWf/crYb7aDMMnb1m1FvuRR1DvpPvEBw8QmlSpqmNqZW2bTshNrnRdzKELcqY260aweL1HLOo3FBwwTW1SKqC//epUW7F5OWbvz7PvNdhHizur0LD3fOZ39bSbmiLioVx/ZRMOKcp3zm+2i+NtIXnmj81D2t5mYImKi/vKH/ZRdPJ/Wn97uvqltFtFrJzfoRL5uo+neRh3EBwwTvbguavjN2UX5lH9ohXfEHIoQd1qTHpT94EROOWWiGtdEDb95+YF1NGprduT9ZruUXiH6rVT1t8d3HcImOROVuCLqdSe2UlZxnj+1szL9ZrsIf3tucgb1b/OIOMgw0YGjot5//gRNLnzHW36zXYRJjpTT6d0y6O5bbhcfMIy3cUTUMLVf2/oezTv4sf9ANJjaZhHiTk/qQzndx/MQGON5whY1SiJHbZuh+qJRaWqbRfjbvrtGcYkn42lsi7qsJPLcXqLqcRQt5hJPxuNYFjVKIrOLFkQmtdOrCJMcKaeTk4ezv814CtOiht88e2cB+fYt9pvaseQ320WIO6PdQC7xZDyDKVGjJHLwFl9ZKSMTAvxthbyUSZxyylQ6hqJGamfm1lwqPr0tvvxmuwh/+/2eUznllKk0dEWNwosn/v6C+amEGD8wya9doLwHffRMh8fFQYaJHFJRn7z0I7VZKh5IFrQ9lF67sN+HHERjIo50Mv//PLDO3+OwoO1TJYFWHFovdhgmckhFffLyj+pD6QoItl1Vzo/gEja0cQwvkUiA62jX1+7FjWsr39+Rkv8WOwwTOSK37A6Eo2yogNqU9jEdHvRX+mbgJ2obWVptazf1C8xNlPOnNU6hT/ou9F//D6toceoc/7UhcIaJAaQ+9bhNMyn/8CfOjUUrYoZwVj06R7dWGePgfzteSIP/K8tv9jtt+iuCzuoyhqZ2GyEOXAfXHrFuKq08Vejo35x6Sxf67PdzxQGGiQwR66lX9pllOPkAxnZR5rhrwF+cN4eV8yU3SpEKGuDauQ9P4YQaJiZwX9SKoNKb9zI9eydW1dj0+0XOmuLXLlDmnUPEjhxkg2W1H8BmOBP1uG9+KyKBzzzuHmNRhaJWf21WTHEnkl6UF8Q3f9xY4YtFzZxbP8aZa0bY/P7pp59E6zo33XSTaJnj0qVLdO1asJWUmJhItWrVEnsV8/3339Px48fp66+/Vu/pwoUL6vGaNWuq99OwYUNq3749NW/e3NJ5ZX9fjRo11PNq/Pzzz3Tlij+7LxCr30NF15J9Dqx+Vxp657N63xqRC5RZBIkbWDbHkR672g2iEZscPnyYbr31VrrjjjvKNuyvXbtW/IQ55s2bF3QetGfMmCE+NQbX6t+/P7Vq1YpSU1Np4sSJ9Oabb1J+fr66zZ49myZPnkxDhw6lrl27UpcuXdR93HtF4EUh+/tWrlwpfsLPqlWrpD+H37fCiBEjgs6D9ueffy4+JZo/f36562Dr1auX+mKxAr432T2npaVZPpeGZ0UNch4cT6lNe5XlVtvm18uiEdugV9Q2gAfDDoHnqAj0yB07dlSvtWbNGnG0Yk6ePKkKvVOnTqq4jdCMydC/T4/Qn3vjjTfUf82i/V7gOQIZO3Ys1atXr+xzbdu7d6/6AjMLLCPt/yjwPOD1118PskKs4GlRg6V9cyipVlPng2dxwrvvvitazoNeBr3ukSNHxBF7QNzJycnqQ+4GBQUF9MUXX4i98IHYli9fLvaCMWt9gMzMTNEKBpbC/fffL/as43lRIzK97t/zWNQ2gRls1fw0A0Ri1xKQgV7u8cfdy5V/7bXXRMsZHnjgAd37NXMtfH942chALx0Onhc1wFCY4xHxOOLtt98WLecYNGiQaMlJSUmhl19+Wb02tuzsbLUHatCggfiJ8mzbts01ywLnXrZsmdhzhpycHNEK5tNPPzWMZ8BXfvHFF8VeMIsWLbIVbAskKkQNUMqIyicWtnXg58H3dQo8sGfPnhV7waD3Onr0KG3cuJFeeeUVeuGFF9Rt/PjxlJubSwcPHiwX4Apk7ty5rpnhEyZMcPTcCGjpvTCNAl34/4BlEgpehOnp6WLPPlEjaoCIOLLCWNjWGTdunGiFD8QpAz3zRx99pD7sesAf7dOnD506dUocCQYBtD179og9Z0EQSu/e7YIXVufOncVeMLIAIPxtvcCgU1ZKVIkaICssrUXf8CPicQbMTyOT0Czo6XCuUFq3bq32zGbBGKxej71r1y7Rch4Ms+m9UOwyc+ZM0QpGZiHBBZEB96RNmzZiLzw8I2rkX2MzQ37v6VS3puKbcfDMEkYmoVkuXrwoWsE8+eSTomWeHj16iFYw3333nWi5g17U2S6IVOuJNdBCWrx4MRUXF4u96+CFqPf7dvCMqH+6cpGmFM4Re8YgIr6j3/t+UbOwLWFlHNUKLVq0EC3zwBSXma5Xr5p7udsFgazCwkKx5wxTpkwRrWC0AB0snOHDh4ujwfh8Pttj0jI8I+qailDz9+Wp6aFmQEQcM4sgr5spD6LM6AFCgT/ntPkJateuLVrWuHy5fGKQnjVgByTGyHC6t4Y7gci1jGnTpqmZdDIQWESMwUm85VNXb0KjNo1WF9gzA6YKQj00B87k5OXliVYw8N+8wpIlS2jDhg1B26uvvio+DZ+kpCQ1rTMURJ9hDjsJIteIYIeC4J9eth1Sc53Ge4EyRdj9/j5WXTTADCjX5Ih4eTDkBF9PliDhdIZVOCDXGfcZuDkVMAL4HgYPHkxNmzYVR64zadIk3WIKu1iJrmM4zG7RhhHeE7WYIOG+z0aoC9aboSwizmWTQSAoppcg4XSGlddBKmooGOKSHQ8HvKQwJl8RiCVgOMwNvCdqoIi65Oez9Oz6qeJAxSAijjm3eagrGIwZy8xtNzKs9IBVYHZDAMvJRBkN+K19+yov/hAgarO52maBBSCzDAKRuQRO4U1Rg4QatP7kP9TabjOU5YijBpwj4kE899xz0ocMwRu3src0cP5HHnnE9IayTYwlu4HeOLrTPSbSPI0qz5Ckgx7dLbwralD9d5T/TQHl7pAnvoeiRsQfe5dFHQIeMj0z0+kMKxmyKLwRdeq4syaZnmnsVGKOBtweo6FDrbzSLbwtaqAIO2vHTGsR8Yc4RzwUmJ+yyKwbGVZeRs/fzcrKCjsxR+ODDz4wTHWF4J0eJw/E+6IGirAREd9//oQ4YAxHxOXo9cpOj9mG4nYyiRUQbZb5s6gJhxjDBS9IlLtWREZGhmMvkVCiQ9SgaiJ1WTnUXkQ8xqczMgvMT1k6IjKsEKSqXt351ToTEhKoQ4cO6iQIoRssB8wgEmkwxCVLSoEYMcQVzj2ZfUHiJeJWdl9UiRqR7UHrXrKUI57coBPRNe6xNfTSGVHy6EaPivTHFStWqHN8hW4oz2zXrp34ycjy1ltviVYw4USlYVLjBWkWt7L7okfUIKEGbflhF2VsNBcdRUT8w9RsokRehldDz/xExpObwyx6lJaWilZkQZLLkCHlZ7idPn26tArNDBhlkIEkEzMFH04RXaIG1W6kZUf+YikijllTrpb+rzjCoFpLZn7qTXxgBruZWefPnxetyIMJBGXYiU6jFhrpoKHge8aQmZ6fjZepk5F3EH2iBiIijjW0zYBZU7BIAOMHJrFepllFVKlSRbSCKSoqEi3z4EUgm7TQDd9eBtJRnciDNwqOLVy4UP23cePGupbQyJEjHc0XiE5RA0XYT2zMNB0RZ4IxmjjPCDycsnnGkE9uNTNL7yHXm0nEDWAWhxus03sx4NyBSSYI0MnG7GEhOZkvEL2iBlUT6eHVY0xHxJlg7FZD9evXT7SCefrpp00HfpCiCv9VRiRFDatF603tgOCYlVlBUZUmA/kCZtNj8R3jZ7HJ3J6oFzVyxPuvnSAOMFaA+Wmm+CAUvdpgJFzcdtttuvnUMDEhAqzkoXcODHO5mUIpA4k5enXXFaE3hIWpmmSzguoNK4LRo0eLlj4YekQNOqyLRo0a0YEDB8pNAR3dogYJNaj47Ff01Gr5lKuMMUY5ynrgwZRFjjVwTqy8gfWn8OA1a9ZMbcNsR2630UoekUhblWGnt0ZwTDYraEUTH2BYUWbyY6ojoxpv9Mp169ZV2wjm7d+/Xx0SxNplgUS/qEG1G2nlt2sod4d85glGH5ifejN2GIFAmxkzGQ+f2ag6hn4i3UtrGPWgMiAwveBYRW4NhhVnzZol9oLBlEd6IwlY/A8vSYDvFZYPXpahL4jYEDVQI+JvmY6IM9fRm7HDCJiWq1evlpYz2gGC1quW0ou4O42Z9E4NvSQes7OCGn3nemt/QcDnzp1T2y1btlQr7yD00CG42BE14Ii4bewEzdDjIFssnKQVPNg7d+40LH+UrLYs5ZdffhGt61jJr0ZkX29y/kD0gmMQmZXeXs/V0Cv4wPetWT24VwgbPjWmbArEM+tTI4Ld5MPeavArLETZ5Xd/XKcuJG+FaF2fGoESvN1Dx3fRa1iZpRI+4rFjx8SevxADQ19mVo2AeJD6uXTpUtq9e7c0EUMDQamHHnqIBgwYYMrchjka2nvh3nBfuD8NCAFR9cDv4eabb1YrsMyCvwPfW+DLANcaOHCgmoUGENUO7R3xMxhvtuo+hH7nGjCp9eq/EYTUxA2fGmIPxH1Rl16hrI5PqwUWRpy89CO1WfKYY9dsW6cFbX2iQE0VNYujC91HUNReA4LAQ49ssZKSEnHUP8Np/fr1yz2EjLO4b35XSaBNpytecWHvmf2K/fQvsRcmyovhUMkx0zniGpv/uZ0oMfJVQ7EGrAOYh+i1QicUZEG7j/uiVsxpDDkZBbBQdTVp55+cFRRyxE+sNT0dUtHpfWoEPWzzn2EqmcgEyhSBIYAlEzZ86b6fjaITlxQfzGlBKdfNP7SCbl/S33DmFPjSPT8b6ozZzTCVjPs+dSBXf6TkRin0WJNuyk5V+vrCt2pvChPd8WsFguAZVvJQRJvetDvdUa+ZcrAqnblynv7jn59TycVjzgs6jn1qpnKRijpz82yad/Bjd4QGgWEDbos5FFz3t1L/pgHrwA2Tm0XNVBJS8/vuhu2DH3wngYAUs1jdIilogGvjmtr1sbkhaKCIunvDO8UOw0QOqagxcV/buq14Yny7KIKue0NDeqqD9dJGhgkX3UDZPx6fr471qhP3aeYyUzHK95V0Y2Pa+Ogcy8kvDOMEUp9aA0NNyw+soyl7FlHJ5TN+c5WRA6tGMe19HQfTsLsGWkp6YRgnMRS1Boadcnb8mebtW+gfS3bLD41GYMVcu0Aj2g+hcXcPUedEY5jKxJSoNVAoMWFzDm05tYXFLcTctn5HWtBzqroyCMN4AUui1kAix8Ttc+jEv76NT5Nc8ZsRCJubnKEGFRnGS9gSNYC/vWD3csraW1DmT8Y8+DurJFBWh8H0fOd0DoQxnsS2qDVQXZX7ZYGajqma47FokgtTO731EzT53mHUsk5j8QHDeI+wRa3x5Q/7KXNrLhWf3hZb/jaGqGq3oPcVvxnzhzOM13FM1BoojhhdPC/6h8AwPq/cf17yGHqGk0iYKMJxUQO/v/2R4m8vjj5/W/jNGW3TKPOeZ9hvZqIOV0StAX972rb3/JVYXve3hd+M5W8npTzPy/QwUYurotbABAQjN/vU2Ug8KW4xRLXo/peod9J94iDDRCcREbWGOrHfFl+Zv1rpCNeA/WYmloioqAH87dk7C8i3T/G3Ud5ZGf42TG1ly2g3kP1mJuaIuKg1kHI6a+eHkfW3hZhTG3WjycnDObWTiUkqTdQa8Lef3TTd/ZRT4TcvuHccPdq6pzjIMLFHpYtaQ51zu3iO80NgOJ+C787hXBLJxAWeETUoK/HE/GggHHELUzs9qQ9NSxnJJZFM3OApUWvA355c+A6tP73dur8txJzcoBPl3DeO/WYm7vCkqDUsl3iKobLF3bO4JJKJWzwtalBW4rk7T7lbnSmF4Tf/VkpZnZ6l8V2HsN/MxDWeF7UG/O3sonz/IgMY34bAxTTGaU160LQHxnJJJMMoRI2oNeBvbzi6mc5cKaFaiTXp4ebduCSSYQKIOlEzDGNMZBbIYxgmYrCoGSbGYFEzTExB9P/LCzytdOpv5AAAAABJRU5ErkJggg==;" vertex="1" parent="19">
                    <mxGeometry x="55.309999999999995" y="93.33000000000001" width="55" height="23.35" as="geometry"/>
                </mxCell>
                <mxCell id="26" value="ECS on Fargate" style="text;html=1;strokeColor=none;fillColor=none;align=center;verticalAlign=middle;whiteSpace=wrap;rounded=0;" vertex="1" parent="19">
                    <mxGeometry x="62.19" y="45" width="60" height="30" as="geometry"/>
                </mxCell>
                <mxCell id="24" value="" style="outlineConnect=0;dashed=0;verticalLabelPosition=bottom;verticalAlign=top;align=center;html=1;shape=mxgraph.aws3.internet_gateway;fillColor=#F58534;gradientColor=none;" vertex="1" parent="6">
                    <mxGeometry x="190" y="-20" width="39" height="42" as="geometry"/>
                </mxCell>
                <mxCell id="29" value="" style="endArrow=none;html=1;entryX=0.5;entryY=1;entryDx=0;entryDy=0;entryPerimeter=0;exitX=0.5;exitY=0;exitDx=0;exitDy=0;" edge="1" parent="6" source="28" target="24">
                    <mxGeometry width="50" height="50" relative="1" as="geometry">
                        <mxPoint x="220" y="180" as="sourcePoint"/>
                        <mxPoint x="270" y="130" as="targetPoint"/>
                        <Array as="points">
                            <mxPoint x="108" y="70"/>
                            <mxPoint x="210" y="70"/>
                        </Array>
                    </mxGeometry>
                </mxCell>
                <mxCell id="30" value="" style="endArrow=none;html=1;entryX=0.5;entryY=1;entryDx=0;entryDy=0;entryPerimeter=0;exitX=0.5;exitY=0;exitDx=0;exitDy=0;" edge="1" parent="6" source="20" target="24">
                    <mxGeometry width="50" height="50" relative="1" as="geometry">
                        <mxPoint x="117.80999999999995" y="135" as="sourcePoint"/>
                        <mxPoint x="219.5" y="32" as="targetPoint"/>
                        <Array as="points">
                            <mxPoint x="310" y="70"/>
                            <mxPoint x="270" y="70"/>
                            <mxPoint x="210" y="70"/>
                        </Array>
                    </mxGeometry>
                </mxCell>
                <mxCell id="25" value="Internet&lt;br&gt;Gateway" style="text;html=1;strokeColor=none;fillColor=none;align=center;verticalAlign=middle;whiteSpace=wrap;rounded=0;" vertex="1" parent="1">
                    <mxGeometry x="140" y="-10" width="60" height="30" as="geometry"/>
                </mxCell>
            </root>
        </mxGraphModel>
    </diagram>
</mxfile>